<svg width="24" height="24" viewBox="0 0 24 24" fill="none" xmlns="http://www.w3.org/2000/svg">
<circle cx="12.1555" cy="12.0444" r="11.3778" fill="#F9CC00"/>
<path d="M9.19259 17.9703H7.41481C7.10048 17.9703 6.79903 17.8454 6.57676 17.6231C6.3545 17.4009 6.22963 17.0994 6.22963 16.7851V12.6369C6.22963 12.3226 6.3545 12.0211 6.57676 11.7989C6.79903 11.5766 7.10048 11.4517 7.41481 11.4517H9.19259M13.3407 10.2666V7.89619C13.3407 7.42469 13.1534 6.97251 12.82 6.63911C12.4866 6.30571 12.0345 6.11841 11.563 6.11841L9.19259 11.4517V17.9703H15.877C16.1629 17.9735 16.4402 17.8733 16.658 17.6882C16.8758 17.5031 17.0194 17.2455 17.0622 16.9629L17.88 11.6295C17.9058 11.4597 17.8943 11.2862 17.8464 11.1212C17.7985 10.9562 17.7153 10.8036 17.6026 10.674C17.4898 10.5443 17.3503 10.4407 17.1935 10.3704C17.0368 10.3 16.8666 10.2646 16.6948 10.2666H13.3407Z" stroke="white" stroke-width="1.42222" stroke-linecap="round" stroke-linejoin="round"/>
</svg>
