<svg width="58" height="13" viewBox="0 0 58 13" fill="none" xmlns="http://www.w3.org/2000/svg">
<path d="M6.44341 0.799927L7.72064 4.73085H11.8539L8.51002 7.1603L9.78725 11.0912L6.44341 8.66178L3.09956 11.0912L4.3768 7.1603L1.03295 4.73085H5.16617L6.44341 0.799927Z" fill="#F9CC00"/>
<path d="M17.8212 0.799927L19.0984 4.73085H23.2316L19.8878 7.1603L21.165 11.0912L17.8212 8.66178L14.4773 11.0912L15.7546 7.1603L12.4107 4.73085H16.5439L17.8212 0.799927Z" fill="#F9CC00"/>
<path d="M29.199 0.799927L30.4762 4.73085H34.6094L31.2656 7.1603L32.5428 11.0912L29.199 8.66178L25.8551 11.0912L27.1323 7.1603L23.7885 4.73085H27.9217L29.199 0.799927Z" fill="#F9CC00"/>
<path d="M40.5767 0.799927L41.854 4.73085H45.9872L42.6433 7.1603L43.9206 11.0912L40.5767 8.66178L37.2329 11.0912L38.5101 7.1603L35.1663 4.73085H39.2995L40.5767 0.799927Z" fill="#F9CC00"/>
<path d="M51.9545 0.799927L53.2317 4.73085H57.365L54.0211 7.1603L55.2984 11.0912L51.9545 8.66178L48.6107 11.0912L49.8879 7.1603L46.5441 4.73085H50.6773L51.9545 0.799927Z" fill="#F9CC00"/>
</svg>
